nColumns=28
nRows=39
DataType=double
version=3
OpenSimVersion=4.1
endheader
time	ground_force_1_vx	ground_force_1_vy	ground_force_1_vz	ground_force_1_px	ground_force_1_py	ground_force_1_pz	ground_force_1_mx	ground_force_1_my	ground_force_1_mz	ground_force_2_vx	ground_force_2_vy	ground_force_2_vz	ground_force_2_px	ground_force_2_py	ground_force_2_pz	ground_force_2_mx	ground_force_2_my	ground_force_2_mz	ground_force_3_vx	ground_force_3_vy	ground_force_3_vz	ground_force_3_px	ground_force_3_py	ground_force_3_pz	ground_force_3_mx	ground_force_3_my	ground_force_3_mz
3.34	18.4378	416.008	-34.2697	-0.282162	0.006	-0.423788	0	-1.13475	0	-4.36931	176.632	27.8064	-0.120982	0.006	-0.785365	0	-0.103209	0	0	0	0	0	0	0	0	0	0
3.35	18.9281	421.271	-34.2782	-0.282814	0.006	-0.423915	0	-1.1238	0	-4.31222	178.345	28.0855	-0.121496	0.006	-0.785482	0	-0.099169	0	0	0	0	0	0	0	0	0	0
3.36	19.4807	425.888	-34.174	-0.283534	0.006	-0.424079	0	-1.10408	0	-4.21456	179.617	28.3847	-0.121976	0.006	-0.785613	0	-0.102183	0	0	0	0	0	0	0	0	0	0
3.37	20.0607	429.79	-33.9832	-0.284305	0.006	-0.424271	0	-1.07714	0	-4.07832	180.442	28.6857	-0.122422	0.006	-0.785754	0	-0.111681	0	0	0	0	0	0	0	0	0	0
3.38	20.6213	432.952	-33.7396	-0.285102	0.006	-0.424479	0	-1.04505	0	-3.91568	180.849	28.9721	-0.122829	0.006	-0.785901	0	-0.126775	0	0	0	0	0	0	0	0	0	0
3.39	21.1135	435.403	-33.479	-0.285901	0.006	-0.424693	0	-1.01016	0	-3.74787	180.889	29.2321	-0.123197	0.006	-0.786051	0	-0.146578	0	0	0	0	0	0	0	0	0	0
3.4	21.4964	437.217	-33.2328	-0.286676	0.006	-0.424904	0	-0.974897	0	-3.60203	180.634	29.4612	-0.123521	0.006	-0.786202	0	-0.170455	0	0	0	0	0	0	0	0	0	0
3.41	21.7426	438.5	-33.0239	-0.287408	0.006	-0.425105	0	-0.941467	0	-3.50709	180.166	29.6621	-0.1238	0.006	-0.786355	0	-0.197919	0	0	0	0	0	0	0	0	0	0
3.42	21.8396	439.366	-32.8651	-0.288081	0.006	-0.425292	0	-0.911602	0	-3.48779	179.573	29.8429	-0.124031	0.006	-0.786512	0	-0.22855	0	0	0	0	0	0	0	0	0	0
3.43	21.7877	439.919	-32.7623	-0.288685	0.006	-0.42546	0	-0.886525	0	-3.55889	178.936	30.0138	-0.124217	0.006	-0.786674	0	-0.261971	0	0	0	0	0	0	0	0	0	0
3.44	21.5966	440.248	-32.7174	-0.289214	0.006	-0.425607	0	-0.867027	0	-3.72423	178.325	30.1841	-0.12436	0.006	-0.786842	0	-0.297875	0	0	0	0	0	0	0	0	0	0
3.45	21.2818	440.431	-32.7285	-0.289669	0.006	-0.425732	0	-0.853616	0	-3.97942	177.795	30.3614	-0.124466	0.006	-0.787015	0	-0.335944	0	0	0	0	0	0	0	0	0	0
3.46	20.863	440.538	-32.7899	-0.290049	0.006	-0.425836	0	-0.846676	0	-4.31383	177.382	30.5504	-0.124543	0.006	-0.787191	0	-0.37554	0	0	0	0	0	0	0	0	0	0
3.47	20.3649	440.631	-32.8934	-0.290359	0.006	-0.425918	0	-0.846688	0	-4.71048	177.107	30.7502	-0.124601	0.006	-0.787366	0	-0.415483	0	0	0	0	0	0	0	0	0	0
3.48	19.8142	440.763	-33.0291	-0.290602	0.006	-0.42598	0	-0.854193	0	-5.14598	176.98	30.9547	-0.124653	0.006	-0.787535	0	-0.454201	0	0	0	0	0	0	0	0	0	0
3.49	19.2342	440.975	-33.1875	-0.290782	0.006	-0.426025	0	-0.869553	0	-5.59312	176.999	31.153	-0.124708	0.006	-0.78769	0	-0.489836	0	0	0	0	0	0	0	0	0	0
3.5	18.6423	441.285	-33.361	-0.290901	0.006	-0.426053	0	-0.892812	0	-6.02574	177.159	31.3323	-0.12478	0.006	-0.787825	0	-0.520363	0	0	0	0	0	0	0	0	0	0
3.51	18.0525	441.69	-33.5424	-0.290965	0.006	-0.426067	0	-0.92364	0	-6.42332	177.454	31.4803	-0.124875	0.006	-0.787936	0	-0.543822	0	0	0	0	0	0	0	0	0	0
3.52	17.4789	442.166	-33.723	-0.290981	0.006	-0.426069	0	-0.961347	0	-6.77291	177.872	31.5872	-0.125002	0.006	-0.788021	0	-0.558487	0	0	0	0	0	0	0	0	0	0
3.53	16.9353	442.678	-33.8946	-0.290955	0.006	-0.426063	0	-1.00497	0	-7.0684	178.392	31.6462	-0.125167	0.006	-0.788079	0	-0.562985	0	0	0	0	0	0	0	0	0	0
3.54	16.4318	443.191	-34.0495	-0.290895	0.006	-0.426049	0	-1.05335	0	-7.30912	178.988	31.6546	-0.12537	0.006	-0.788111	0	-0.556619	0	0	0	0	0	0	0	0	0	0
3.55	15.9723	443.684	-34.1811	-0.290806	0.006	-0.426031	0	-1.10516	0	-7.49819	179.628	31.6146	-0.125611	0.006	-0.788122	0	-0.539594	0	0	0	0	0	0	0	0	0	0
3.56	15.5518	444.149	-34.2846	-0.290691	0.006	-0.426007	0	-1.15899	0	-7.64032	180.278	31.5339	-0.125887	0.006	-0.788115	0	-0.51314	0	0	0	0	0	0	0	0	0	0
3.57	15.1589	444.593	-34.359	-0.290551	0.006	-0.425977	0	-1.21361	0	-7.74041	180.906	31.4251	-0.126191	0.006	-0.788099	0	-0.479388	0	0	0	0	0	0	0	0	0	0
3.58	14.7808	445.03	-34.4071	-0.290385	0.006	-0.42594	0	-1.26801	0	-7.80375	181.481	31.3042	-0.126513	0.006	-0.788082	0	-0.441029	0	0	0	0	0	0	0	0	0	0
3.59	14.4051	445.465	-34.4355	-0.290193	0.006	-0.425893	0	-1.32133	0	-7.83567	181.98	31.1884	-0.126841	0.006	-0.788071	0	-0.401002	0	0	0	0	0	0	0	0	0	0
3.6	14.0212	445.892	-34.4531	-0.289975	0.006	-0.425836	0	-1.37288	0	-7.84151	182.379	31.0938	-0.127166	0.006	-0.788072	0	-0.362224	0	0	0	0	0	0	0	0	0	0
3.61	13.6213	446.289	-34.4695	-0.289734	0.006	-0.425767	0	-1.422	0	-7.82643	182.666	31.032	-0.127477	0.006	-0.788087	0	-0.327361	0	0	0	0	0	0	0	0	0	0
3.62	13.2009	446.631	-34.4931	-0.289474	0.006	-0.425685	0	-1.46778	0	-7.79406	182.831	31.0096	-0.127767	0.006	-0.78812	0	-0.298585	0	0	0	0	0	0	0	0	0	0
3.63	12.7593	446.901	-34.5303	-0.289202	0.006	-0.425592	0	-1.50909	0	-7.74645	182.869	31.0274	-0.128026	0.006	-0.788168	0	-0.277281	0	0	0	0	0	0	0	0	0	0
3.64	12.3007	447.098	-34.5849	-0.288924	0.006	-0.425489	0	-1.54483	0	-7.68584	182.776	31.0803	-0.128248	0.006	-0.78823	0	-0.263939	0	0	0	0	0	0	0	0	0	0
3.65	11.834	447.244	-34.6568	-0.288647	0.006	-0.425377	0	-1.57387	0	-7.61653	182.551	31.1591	-0.12843	0.006	-0.788299	0	-0.25831	0	0	0	0	0	0	0	0	0	0
3.66	11.3727	447.377	-34.7418	-0.288376	0.006	-0.42526	0	-1.59509	0	-7.54418	182.195	31.251	-0.128571	0.006	-0.788366	0	-0.259452	0	0	0	0	0	0	0	0	0	0
3.67	10.9311	447.537	-34.832	-0.288113	0.006	-0.425142	0	-1.60749	0	-7.4736	181.719	31.3416	-0.128671	0.006	-0.788423	0	-0.265889	0	0	0	0	0	0	0	0	0	0
3.68	10.521	447.749	-34.917	-0.287861	0.006	-0.425025	0	-1.61038	0	-7.40737	181.153	31.4185	-0.128734	0.006	-0.788461	0	-0.275898	0	0	0	0	0	0	0	0	0	0
3.69	10.1486	448.023	-34.9852	-0.287617	0.006	-0.424911	0	-1.60351	0	-7.34525	180.535	31.4737	-0.128768	0.006	-0.788475	0	-0.287855	0	0	0	0	0	0	0	0	0	0
3.7	9.81172	448.344	-35.0272	-0.287379	0.006	-0.424804	0	-1.58719	0	-7.28311	179.918	31.5052	-0.128783	0.006	-0.788461	0	-0.300441	0	0	0	0	0	0	0	0	0	0
3.71	9.50167	448.676	-35.0374	-0.287145	0.006	-0.424704	0	-1.56227	0	-7.21228	179.355	31.5167	-0.128788	0.006	-0.78842	0	-0.312776	0	0	0	0	0	0	0	0	0	0
3.72	9.20894	448.974	-35.0137	-0.286911	0.006	-0.424611	0	-1.53006	0	-7.12132	178.894	31.5166	-0.128798	0.006	-0.788355	0	-0.324486	0	0	0	0	0	0	0	0	0	0
